<svg version="1.1" xmlns="http://www.w3.org/2000/svg" viewBox="0 0 780.7940034940812 721.6386367560036" width="780.7940034940812" height="721.6386367560036" filter="invert(93%) hue-rotate(180deg)">
  <!-- svg-source:excalidraw -->
  
  <defs>
    <style class="style-fonts">
      @font-face {
        font-family: "Virgil";
        src: url("https://excalidraw.com/Virgil.woff2");
      }
      @font-face {
        font-family: "Cascadia";
        src: url("https://excalidraw.com/Cascadia.woff2");
      }
    </style>
    
  </defs>
  <rect x="0" y="0" width="780.7940034940812" height="721.6386367560036" fill="#ffffff"></rect><g stroke-linecap="round" transform="translate(122.28033161908115 407.58535306459737) rotate(0 53.767425537109375 73.46087646484375)"><path d="M-1.81 -0.19 C27.03 -1.31, 56.14 -1.61, 106.97 -1.8 M-0.14 0.41 C32.44 0.39, 64.94 -0.45, 106.58 0.06 M108.39 -1.61 C107.37 47.37, 107.81 93.77, 108.68 147.02 M107.17 -0.69 C107.7 43.78, 108.89 87.26, 106.93 147.5 M106.08 145 C73.85 147.28, 36.02 144.51, 0.6 145.03 M106.68 147.07 C68.95 146.92, 31.22 147.68, 0.48 146.12 M1.21 147.36 C2.33 107.72, -0.65 64.46, -0.03 0.46 M-0.17 147.44 C-1.08 96.81, -0.46 47.98, 0.44 0.38" stroke="#1e1e1e" stroke-width="1" fill="none"></path></g><g transform="translate(152.61025715619053 469.0462295294411) rotate(0 23.4375 12)"><text x="23.4375" y="0" font-family="Cascadia, Segoe UI Emoji" font-size="20px" fill="#1e1e1e" text-anchor="middle" style="white-space: pre;" direction="ltr" dominant-baseline="text-before-edge">View</text></g><g stroke-linecap="round" transform="translate(313.9949922636124 267.08617703920675) rotate(0 64 80.5)"><path d="M-1.51 0.87 C35.76 1.13, 73.17 0.82, 127.3 -1.95 M-0.35 0.23 C34.53 1.58, 68 1.88, 127.17 -0.61 M126.73 0.07 C127.87 34.93, 128.36 71.43, 129.4 160.91 M128.54 -1 C127.31 53.89, 128.04 107.31, 128.34 161.75 M127.05 160.23 C85.91 161.62, 45.18 160.72, 0.34 160.7 M127.37 160.3 C94.6 160.45, 62.45 160.01, 0.92 161.83 M0.93 162.38 C0.74 119.94, -0.24 77.96, -0.13 1.05 M-0.69 161.49 C0.11 118.2, 0.22 75.3, -0.22 0.86" stroke="#1e1e1e" stroke-width="1" fill="none"></path></g><g transform="translate(325.2606172636124 335.58617703920675) rotate(0 52.734375 12)"><text x="52.734375" y="0" font-family="Cascadia, Segoe UI Emoji" font-size="20px" fill="#1e1e1e" text-anchor="middle" style="white-space: pre;" direction="ltr" dominant-baseline="text-before-edge">presenter</text></g><g stroke-linecap="round" transform="translate(334.8560762479874 611.3774673224099) rotate(0 54.8265380859375 50.130584716796875)"><path d="M-0.54 0.93 C34.94 -1.22, 73.37 -2.16, 109.12 -1.43 M0.4 0.21 C34.47 0.33, 67.29 1.1, 109.1 -0.96 M111.09 -0.35 C110.6 36.69, 109.47 75.56, 109.65 100.29 M109.6 -0.66 C109.53 34.59, 109.38 69.49, 109.96 99.55 M110.36 100.37 C76.1 102.23, 42.34 99.38, -0.65 101.81 M109.83 101.24 C72 101.03, 36.69 102.04, 0.13 101.14 M-0.78 101.25 C-0.38 70.47, -1.18 42.84, -1.04 1.2 M-0.3 100.24 C1.55 70.43, -0.01 42.5, 0.61 -0.85" stroke="#1e1e1e" stroke-width="1" fill="none"></path></g><g transform="translate(360.3857393339249 649.5080520392067) rotate(0 29.296875 12)"><text x="29.296875" y="0" font-family="Cascadia, Segoe UI Emoji" font-size="20px" fill="#1e1e1e" text-anchor="middle" style="white-space: pre;" direction="ltr" dominant-baseline="text-before-edge">model</text></g><g stroke-linecap="round"><g transform="translate(312.6708152992003 293.47278500514415) rotate(0 -68.85971125587821 55.0219616394391)"><path d="M-0.36 1.1 C-52.66 0.61, -100.36 -1.31, -136.99 -1.12 M0.85 0.93 C-34.22 -1.21, -67.51 -0.96, -138.57 -0.67 M-136.66 -0.61 C-139.35 35.95, -137 73.6, -138.13 108.99 M-137.25 0.65 C-137.35 32.62, -136.5 66.9, -138.44 111.18" stroke="#1e1e1e" stroke-width="1" fill="none"></path></g><g transform="translate(312.6708152992003 293.47278500514415) rotate(0 -68.85971125587821 55.0219616394391)"><path d="M-29.1 11.92 C-19.86 8.55, -5.99 3.03, 0.38 -0.02 M-27.89 11.75 C-22.8 8.77, -15.87 6.66, -1.2 0.44" stroke="#1e1e1e" stroke-width="1" fill="none"></path></g><g transform="translate(312.6708152992003 293.47278500514415) rotate(0 -68.85971125587821 55.0219616394391)"><path d="M-28.71 -8.59 C-19.55 -4.37, -5.82 -2.28, 0.38 -0.02 M-27.5 -8.77 C-22.41 -6.78, -15.57 -3.93, -1.2 0.44" stroke="#1e1e1e" stroke-width="1" fill="none"></path></g><g transform="translate(312.6708152992003 293.47278500514415) rotate(0 -68.85971125587821 55.0219616394391)"><path d="M-148.23 83.8 C-145.9 94.51, -139.04 103.15, -137.7 110.07 M-147.02 83.63 C-146.34 89.73, -143.99 96.86, -139.28 110.52" stroke="#1e1e1e" stroke-width="1" fill="none"></path></g><g transform="translate(312.6708152992003 293.47278500514415) rotate(0 -68.85971125587821 55.0219616394391)"><path d="M-127.72 84.4 C-132.99 94.8, -133.74 103.21, -137.7 110.07 M-126.51 84.23 C-130.79 90, -133.42 96.99, -139.28 110.52" stroke="#1e1e1e" stroke-width="1" fill="none"></path></g></g><mask></mask><g stroke-linecap="round"><g transform="translate(380.5634737089249 611.7735854864724) rotate(0 0.09387846948990841 -90.99077312834561)"><path d="M-1.36 -0.86 C1.87 -54.31, 2.15 -106.82, 0.74 -180.56 M0.38 -0.94 C0.54 -66.84, 0.52 -134.02, -0.04 -181.12" stroke="#1e1e1e" stroke-width="1" fill="none"></path></g><g transform="translate(380.5634737089249 611.7735854864724) rotate(0 0.09387846948990841 -90.99077312834561)"><path d="M-12.29 -30.15 C-6.57 -22.7, -3.45 -14.3, -0.47 -0.76 M-10.55 -30.23 C-8.56 -18.61, -4.97 -8.17, -1.25 -1.32" stroke="#1e1e1e" stroke-width="1" fill="none"></path></g><g transform="translate(380.5634737089249 611.7735854864724) rotate(0 0.09387846948990841 -90.99077312834561)"><path d="M8.22 -29.65 C7.97 -22.3, 5.11 -14.04, -0.47 -0.76 M9.97 -29.73 C4.35 -18.09, 0.32 -7.84, -1.25 -1.32" stroke="#1e1e1e" stroke-width="1" fill="none"></path></g></g><mask></mask><g stroke-linecap="round" transform="translate(336.5734834745499 387.156062293113) rotate(0 41.30230712890625 16.102386474609375)"><path d="M0.42 -1.41 C26.41 -0.54, 55.81 -0.13, 81.71 -0.41 M0.2 -0.99 C25.66 -0.04, 49.34 0.51, 82.59 0.42 M83.8 -0.19 C84.07 8.57, 81.82 16.54, 81.01 32.84 M82.38 -0.81 C81.91 12.51, 82.65 26.06, 82.92 32.35 M81.37 30.99 C66.44 30.7, 47.46 32.63, 1.71 33.77 M83.21 31.77 C58.7 32.62, 34.66 33.25, -0.7 31.7 M1.72 32.21 C-2.05 19.83, -1.31 9.88, 0.97 -1.38 M-0.39 31.64 C-0.16 24.17, -0.9 16.35, 0.33 0.69" stroke="#1e1e1e" stroke-width="1" fill="none"></path></g><g stroke-linecap="round" transform="translate(581.6358614042374 325.803767371238) rotate(0 80.96734619140625 28.039779663085938)"><path d="M-0.1 0.12 C60.96 1.1, 118.22 2.31, 159.97 1.42 M163.68 -0.39 C160.05 17.26, 160.48 35.81, 162.41 55.69 M163.49 54.9 C100.29 57.9, 33.31 57.63, 0.95 56.93 M-0.07 57.99 C-1.33 35.31, -1.03 13.67, -0.34 -1.96" stroke="#1e1e1e" stroke-width="1.5" fill="none" stroke-dasharray="8 9"></path></g><g transform="translate(624.2584810331437 342.34354703432393) rotate(0 38.3447265625 11.5)"><text x="38.3447265625" y="0" font-family="Helvetica, Segoe UI Emoji" font-size="20px" fill="#1e1e1e" text-anchor="middle" style="white-space: pre;" direction="ltr" dominant-baseline="text-before-edge">Services</text></g><g stroke-linecap="round" transform="translate(591.8930025175187 437.8904678106911) rotate(0 68.10470581054688 24.376556396484375)"><path d="M-1.85 -0.43 C54.32 0.88, 106.72 1.53, 135.24 0.59 M137.39 1.85 C137.95 16.02, 135.51 28.64, 135.55 49.64 M137.85 49.08 C110.54 48.74, 82.12 47.92, -1.94 48.4 M1.23 49.46 C-1.11 33.71, -1.47 19.7, 0.1 -1.39" stroke="#1e1e1e" stroke-width="1.5" fill="none" stroke-dasharray="8 9"></path></g><g transform="translate(604.4166536405655 450.7670242071755) rotate(0 55.5810546875 11.5)"><text x="55.5810546875" y="0" font-family="Helvetica, Segoe UI Emoji" font-size="20px" fill="#1e1e1e" text-anchor="middle" style="white-space: pre;" direction="ltr" dominant-baseline="text-before-edge">Repositories</text></g><g stroke-linecap="round"><g transform="translate(658.9730196073624 388.5885879278786) rotate(0 -0.4159524869173765 24.61040047183633)"><path d="M-1.76 1.31 C-1.03 17.47, -1.02 32.76, 0.24 46.94 M0.93 -0.19 C-0.08 17.16, -0.91 31.52, -0.59 49.41" stroke="#1e1e1e" stroke-width="1" fill="none"></path></g><g transform="translate(658.9730196073624 388.5885879278786) rotate(0 -0.4159524869173765 24.61040047183633)"><path d="M-10.67 27.89 C-7.28 35.47, -4.48 42.12, -0.35 47.76 M-7.98 26.4 C-6.27 35.23, -4.32 41.01, -1.17 50.24" stroke="#1e1e1e" stroke-width="1" fill="none"></path></g><g transform="translate(658.9730196073624 388.5885879278786) rotate(0 -0.4159524869173765 24.61040047183633)"><path d="M5.95 27.89 C3.77 35.38, 1 42.04, -0.35 47.76 M8.64 26.39 C4.82 35.11, 1.23 40.89, -1.17 50.24" stroke="#1e1e1e" stroke-width="1" fill="none"></path></g></g><mask></mask><g stroke-linecap="round" transform="translate(554.3533296659562 281.04772489076925) rotate(0 108.2203369140625 121.27154541015625)"><path d="M1.33 -0.41 C52.7 -1.15, 104.93 -1.7, 217.43 0.22 M-0.18 0.49 C57.72 -0.71, 116.33 -1.75, 215.57 -0.22 M216.01 -0.21 C216.69 63.34, 216.97 123.8, 216.14 241.37 M215.9 0.28 C216.5 55.99, 215.71 113.51, 216.76 243.25 M215.49 241.71 C169.33 239.87, 117.55 241.35, -0.84 244.11 M215.66 242.1 C159.78 242.04, 102.32 240.59, -0.11 243.3 M1.42 241.34 C-0.77 145.69, -1.62 48.21, 0.4 -1.13 M-0.19 243.04 C-1.57 189.82, -2.08 135.95, -0.53 0.6" stroke="#1e1e1e" stroke-width="1" fill="none"></path></g><g stroke-linecap="round"><g transform="translate(413.9486970508263 383.42602078920675) rotate(0 69.02936489983435 -28.564529535797135)"><path d="M0.37 1.44 C36.9 -14.19, 71.47 -28.94, 137.69 -58.57" stroke="#1e1e1e" stroke-width="1.5" fill="none" stroke-dasharray="8 9"></path></g><g transform="translate(413.9486970508263 383.42602078920675) rotate(0 69.02936489983435 -28.564529535797135)"><path d="M134.78 -65.09 C136.38 -65.91, 138.95 -67.01, 140.56 -66.79 C142.16 -66.56, 143.72 -65.36, 144.42 -63.73 C145.13 -62.1, 144.95 -58.87, 144.8 -57.01 C144.66 -55.16, 144.84 -53.6, 143.54 -52.59 C142.25 -51.59, 138.86 -50.9, 137.03 -50.98 C135.2 -51.05, 133.72 -52.13, 132.56 -53.04 C131.41 -53.95, 130.52 -54.8, 130.09 -56.44 C129.66 -58.08, 129 -61.24, 130 -62.86 C130.99 -64.48, 134.92 -65.45, 136.09 -66.17 C137.26 -66.9, 137.03 -67.16, 137.02 -67.19" stroke="none" stroke-width="0" fill="#1e1e1e"></path></g></g><mask></mask><g stroke-linecap="round"><g transform="translate(660.7426729276749 525.5828506231911) rotate(0 -107.30412381802279 62.46380841846269)"><path d="M-1.03 0.1 C-1.42 41.29, -0.74 80.2, -1.17 120.01 M0.56 121.71 C-46 123.41, -94.42 123.61, -215.17 124.83" stroke="#1e1e1e" stroke-width="1.5" fill="none" stroke-dasharray="8 9"></path></g><g transform="translate(660.7426729276749 525.5828506231911) rotate(0 -107.30412381802279 62.46380841846269)"><path d="M-188.11 114.39 C-197.76 118.44, -206.51 119.95, -216.34 122.97" stroke="#1e1e1e" stroke-width="1.5" fill="none"></path></g><g transform="translate(660.7426729276749 525.5828506231911) rotate(0 -107.30412381802279 62.46380841846269)"><path d="M-187.91 134.91 C-197.59 132.07, -206.41 126.69, -216.34 122.97" stroke="#1e1e1e" stroke-width="1.5" fill="none"></path></g></g><mask></mask><g stroke-linecap="round" transform="translate(326.9079561307999 286.0697890997536) rotate(0 18.3494873046875 14.586318969726562)"><path d="M-1.42 1.13 C10.33 0.42, 19.91 0.27, 36.99 -1.53 M-0.36 0.31 C10.44 -0.43, 18.67 -0.12, 36.12 0.8 M36.45 -1.19 C36.21 11.88, 38.28 21.81, 37.03 28.85 M35.84 0.48 C37.58 10.1, 36.39 21.79, 37.6 29.63 M37.93 29.87 C23.96 27.9, 11.54 27.71, 0.83 29.79 M35.97 28.6 C25.71 29.73, 15.67 28.4, -0.05 29.71 M0.11 27.28 C1.86 18.96, -0.14 8.79, 0.02 -1.36 M0.21 29.63 C0.09 17.83, -0.73 8.35, 0.41 0.18" stroke="#1e1e1e" stroke-width="1" fill="none"></path></g><g stroke-linecap="round" transform="translate(44.71964586517777 43.21982691739953) rotate(0 81.7751130984231 27.00100025301954)"><path d="M-1.05 -1.01 C38.97 1.13, 74.85 -0.25, 164.11 -1.69 M164.73 0.61 C163.5 9.73, 164.24 24.59, 162.3 54.56 M162.65 54.67 C114.34 52.64, 60.98 52.53, 0.16 55.01 M0.85 53.02 C-0.69 37.85, -1.65 25.16, -1.7 0.4" stroke="#1e1e1e" stroke-width="1.5" fill="none" stroke-dasharray="8 9"></path></g><g transform="translate(90.6339408748006 59.2427490835976) rotate(0 37.7978515625 11.5)"><text x="0" y="0" font-family="Helvetica, Segoe UI Emoji" font-size="20px" fill="#1e1e1e" text-anchor="start" style="white-space: pre;" direction="ltr" dominant-baseline="text-before-edge">Reducer</text></g><g stroke-linecap="round" transform="translate(40.842776155566526 117.04155294847462) rotate(0 83.75351635001437 22.973487906900857)"><path d="M1.91 1.38 C64.73 1.48, 128.93 -0.75, 168.33 0.53 M167.18 0.56 C168.87 15.69, 169.26 32.78, 168.86 46.09 M166.3 47.48 C99.38 49.01, 32.1 48.6, 0.89 46.57 M-0.61 47.11 C0.13 28.56, 0.44 12.38, -0.97 0.12" stroke="#1e1e1e" stroke-width="1.5" fill="none" stroke-dasharray="8 9"></path></g><g transform="translate(90.13340188058089 128.51504085537547) rotate(0 34.462890625 11.5)"><text x="34.462890625" y="0" font-family="Helvetica, Segoe UI Emoji" font-size="20px" fill="#1e1e1e" text-anchor="middle" style="white-space: pre;" direction="ltr" dominant-baseline="text-before-edge">Context</text></g><g stroke-linecap="round" transform="translate(10 10) rotate(0 110.72282367251955 90.63266368317066)"><path d="M0.23 1.5 C88.73 -1.12, 176.2 -1.98, 221.43 -1.67 M0.41 -0.76 C80.36 1.14, 159.67 1.22, 221.76 -0.2 M222.64 -1.3 C222.47 50.18, 221.33 97.58, 222.96 179.74 M221.4 -0.7 C220.28 60.86, 221.75 121.36, 221.91 181.75 M222.56 180.36 C137.35 182.4, 55.61 181.11, 0.85 181.24 M221.39 181.86 C163.81 182.02, 105.31 182.39, 0.46 181.37 M1.57 181.02 C0.24 141.18, 0.89 101.34, -0.69 -0.92 M-0.04 180.57 C-0.57 124.18, 1.16 65.97, 0.36 -0.12" stroke="#1e1e1e" stroke-width="1" fill="none"></path></g><g stroke-linecap="round"><g transform="translate(342.37718766981743 284.0268911857586) rotate(0 -49.820742689436656 -44.35181753975303)"><path d="M0.77 0.85 C-33.69 -32.18, -73.47 -62.37, -100.41 -89.55" stroke="#1e1e1e" stroke-width="1.5" fill="none" stroke-dasharray="8 9"></path></g><g transform="translate(342.37718766981743 284.0268911857586) rotate(0 -49.820742689436656 -44.35181753975303)"><path d="M-97.71 -95.77 C-96.13 -95.41, -94.08 -94.4, -93.24 -93.22 C-92.39 -92.05, -92.3 -90.36, -92.65 -88.71 C-93 -87.06, -94.12 -84.32, -95.34 -83.32 C-96.55 -82.32, -98.15 -82.76, -99.95 -82.7 C-101.76 -82.65, -104.66 -81.89, -106.17 -82.99 C-107.67 -84.08, -108.84 -87.61, -108.97 -89.27 C-109.1 -90.92, -107.78 -91.55, -106.95 -92.91 C-106.12 -94.27, -105.54 -96.86, -103.99 -97.42 C-102.45 -97.98, -98.78 -96.43, -97.66 -96.26 C-96.54 -96.09, -97.37 -96.38, -97.26 -96.39" stroke="none" stroke-width="0" fill="#1e1e1e"></path></g></g><mask></mask><g transform="translate(190.77207070941313 266.0435742190331) rotate(0 26.6845703125 11.5)"><text x="0" y="0" font-family="Helvetica, Segoe UI Emoji" font-size="20px" fill="#1e1e1e" text-anchor="start" style="white-space: pre;" direction="ltr" dominant-baseline="text-before-edge">hooks</text></g></svg>